<svg id="Layer_1" data-name="Layer 1" xmlns="http://www.w3.org/2000/svg" viewBox="0 0 391.84 291.38"><defs><style>.cls-1{fill:#e50695;}.cls-2{fill:#fff;}.cls-3{fill:none;}</style></defs><path class="cls-1" d="M538.15,177.72c-4,0-6.21,2.17-5.9,6.52l1.86,23-20.81-8.69c-3.73-1.55-6.52-.31-8.07,3.72l-4.66,14.58c-1.24,4,.31,6.83,4.35,7.76l21.74,4.65-14.29,16.14c-2.8,3.1-2.48,6.2.93,8.69l12.43,8.68c3.41,2.49,6.52,1.87,8.69-1.86l10.87-18,11.19,18c2.17,3.73,5.28,4.35,8.69,1.86l12.43-8.68c3.72-2.49,4-5.59,1.24-8.69l-14.91-16.14,22.36-5c4-.62,5.59-3.41,4.35-7.45l-4.35-14.58c-1.24-4-4-5.27-7.76-3.72L557.1,207.2l2.17-23c.31-4-1.86-6.52-5.9-6.52Z" transform="translate(-224.53 -152.4)"/><path class="cls-2" d="M289.47,347.13c0,3.87-3,6.45-7.3,6.45a60.42,60.42,0,0,1-7.09-.65V287a17.28,17.28,0,0,1,7.09-1.72c4.3,0,7.3,2.15,7.3,5.59Zm24.92,0V290.86c0-16.76-9.88-27.93-24.92-27.93a24,24,0,0,0-14.39,5.37V224.91c0-2.79-1.5-4.29-4.29-4.29H254.46c-2.79,0-4.29,1.5-4.29,4.29V365.82a4.68,4.68,0,0,0,3.43,4.94,106.94,106.94,0,0,0,28.57,4.3c19.33,0,32.22-11.17,32.22-27.93" transform="translate(-224.53 -152.4)"/><path class="cls-2" d="M364.44,262.29c-7.31,0-14.61,4.08-19.34,10.31l-1.71-4.94a4.46,4.46,0,0,0-4.73-3.44H326c-2.79,0-4.3,1.51-4.3,4.3V369.26c0,2.79,1.51,4.29,4.3,4.29h16.32c2.79,0,4.3-1.5,4.3-4.29V291.5a30.33,30.33,0,0,1,17.61-5.8c2.79-.21,4.3-1.29,4.3-4.29V266.8c0-2.79-1.29-4.51-4.08-4.51" transform="translate(-224.53 -152.4)"/><path class="cls-2" d="M400.3,264.22c-19.33,0-32.22,11.6-32.22,29.22v2.36c0,25.77,30.29,33.72,30.29,46.39v2.15c0,4.3-3,6.88-7.31,6.88H376c-2.8,0-4.3,1.5-4.3,4.29v13.75c0,2.79,1.5,4.29,4.3,4.29h15c19.34,0,32.22-11.59,32.22-29.21v-2.15c0-25.77-30.28-33.72-30.28-46.39v-2.36c0-4.3,3-6.88,7.3-6.88h15c2.79,0,4.29-1.5,4.29-4.29V268.52c0-2.79-1.5-4.3-4.29-4.3Z" transform="translate(-224.53 -152.4)"/><path class="cls-2" d="M484,316.2,496.24,269c.86-3-.65-4.73-3.65-4.73H474.76c-2.58,0-4.08,1.29-4.73,3.87l-8.8,39.09h-6.66V224.91c0-2.79-1.51-4.29-4.3-4.29H434c-2.8,0-4.3,1.5-4.3,4.29V369.26c0,2.79,1.5,4.29,4.3,4.29h16.32c2.79,0,4.3-1.5,4.3-4.29V327.37h7.73l11.38,42.53c.86,2.37,2.37,3.65,4.94,3.65h17.62c3.22,0,4.51-1.93,3.65-4.94Z" transform="translate(-224.53 -152.4)"/><path class="cls-2" d="M495.81,406.48H493l.67-3.79a1.51,1.51,0,0,1,1.62-1.09c.84,0,1.34.42,1.21,1.09Zm.2-9.22c-4.37,0-6.63,2.17-7.21,5.43l-1.88,10.71c-.58,3.26,2.17,5.43,5.3,5.43h4.88a.8.8,0,0,0,.87-.75l.46-2.67c.13-.59-.16-.92-.75-.92H493c-.83,0-1.33-.42-1.21-1.09l.54-3h6.93a.8.8,0,0,0,.87-.75l1.21-7c.59-3.26-2.17-5.43-5.3-5.43m-8.5,0c-1.46,0-3,.84-4.13,2.88l-.13-1.71a.77.77,0,0,0-.83-.79H480a.8.8,0,0,0-.88.75l-3.46,19.56c-.13.62.17.92.75.92h3.17a.81.81,0,0,0,.88-.75l2.41-13.89a6,6,0,0,1,4-2.42c.5,0,.79-.21.87-.71l.5-2.92c.13-.67-.12-.92-.66-.92M468.45,413.7a1.61,1.61,0,0,1-1.67,1.25,8.94,8.94,0,0,1-1.34-.13l2.17-12.3a2.23,2.23,0,0,1,1.5-.84c.84,0,1.38.42,1.25,1.09Zm2.87-16.35a4.29,4.29,0,0,0-3,1.46l1.54-8.76c.13-.59-.17-.92-.75-.92H465.9a.8.8,0,0,0-.87.75l-4.88,27.4a.81.81,0,0,0,.58,1,17.39,17.39,0,0,0,5.34.84c4.17,0,6.63-2.17,7.21-5.42l1.92-10.93c.59-3.25-1.37-5.42-3.88-5.42m-21.27.25.59-3.34a1.45,1.45,0,0,1,1.58-1.08h.63a.8.8,0,0,0,.87-.76l.5-2.66c.13-.59-.12-.92-.62-.92H453c-3.75,0-6.63,2.17-7.21,5.42l-.59,3.34h-1.33a.81.81,0,0,0-.88.75l-.5,2.67c-.12.62.17.91.75.91h1.21l-2.83,16c-.13.62.16.92.75.92h3.17a.8.8,0,0,0,.87-.75l2.84-16.15h5.38l-2.84,16c-.08.54.17.92.75.92h3.17a.8.8,0,0,0,.88-.75l3.46-19.57c.13-.58-.16-.91-.75-.91Zm7.63-8.89a.8.8,0,0,0-.87.75l-.63,3.59a.69.69,0,0,0,.75.92h3.17a.8.8,0,0,0,.88-.75l.63-3.59c.08-.58-.17-.92-.76-.92ZM433.2,397.6l.92-5.34a.68.68,0,0,0-.75-.92H430.2a.81.81,0,0,0-.88.75l-1,5.51h-1.08a.81.81,0,0,0-.88.75l-.5,2.67a.68.68,0,0,0,.75.91h.92l-2.13,12.14a4,4,0,0,0,4,4.76h1.67a.8.8,0,0,0,.87-.75l.46-2.67c.13-.59-.17-.92-.75-.92h-.46a.84.84,0,0,1-.83-1.09l2-11.47h1.67a.8.8,0,0,0,.87-.75l.5-2.67c.13-.58-.16-.91-.75-.91Zm-11.84,0c-4.38,0-6.68,2.25-7.26,5.67l-.08.46c-.88,5,4.71,6.55,4.29,9l-.08.41a1.63,1.63,0,0,1-1.67,1.34h-3a.8.8,0,0,0-.88.75l-.46,2.67c-.12.62.17.92.75.92h2.84c4.38,0,6.67-2.26,7.26-5.68l.08-.41c.88-5-4.75-6.55-4.3-9l.09-.46a1.55,1.55,0,0,1,1.62-1.34h3a.8.8,0,0,0,.87-.75l.5-2.67c.13-.58-.16-.91-.75-.91Zm-16.6,16.31a2.53,2.53,0,0,1-1.5.7c-.84,0-1.3-.41-1.21-1.08L404,402.81a1.57,1.57,0,0,1,1.59-1.13,5.9,5.9,0,0,1,1.38.17Zm6.88-15.44a15,15,0,0,0-5.3-1.08c-4.17,0-6.67,2.17-7.21,5.42l-1.92,10.72c-.55,3.25,1.58,5.42,3.92,5.42a5,5,0,0,0,3.5-1.58l0,.66a.79.79,0,0,0,.88.8H408a.81.81,0,0,0,.88-.75l3.29-18.61a.82.82,0,0,0-.54-1m-13.43-9.34c-4.38,0-6.68,2.17-7.22,5.42l-.54,3.05h-1.33a.8.8,0,0,0-.88.75l-.5,2.67c-.13.62.17.91.75.91h1.21l-2.84,16c-.12.62.17.92.75.92h3.17a.8.8,0,0,0,.88-.75l2.88-16.15h1.67a.8.8,0,0,0,.87-.75l.5-2.67c.13-.62-.16-.91-.75-.91h-1.54l.54-3.05c.08-.67.75-1.08,1.59-1.08h1.16a.8.8,0,0,0,.88-.75L400,390c.13-.59-.17-.88-.75-.88Zm-22.57,0a.82.82,0,0,0-.87.75L370.6,413.4c-.59,3.26,1.41,5.43,5.21,5.43h.5a.84.84,0,0,0,.92-.75l.46-2.67a.68.68,0,0,0-.75-.92h-.42c-.75,0-1.21-.46-1.08-1.13l4.12-23.31c.09-.59-.16-.92-.75-.92Zm-10,0a.83.83,0,0,0-.88.75l-4.17,23.52c-.59,3.26,1.42,5.43,5.21,5.43h.5a.84.84,0,0,0,.92-.75l.46-2.67a.68.68,0,0,0-.75-.92h-.42c-.75,0-1.21-.46-1.08-1.13l4.13-23.31c.08-.59-.17-.92-.75-.92ZM356,397.6a.81.81,0,0,0-.88.75l-2.75,15.51a2.76,2.76,0,0,1-1.54.75c-.84,0-1.3-.41-1.21-1.08l2.67-15a.7.7,0,0,0-.75-.91h-3.17a.8.8,0,0,0-.88.75l-2.71,15.18c-.54,3.25,1.17,5.42,3.5,5.42a5.83,5.83,0,0,0,3.84-1.5l.08.63a.82.82,0,0,0,.92.75h2.46a.81.81,0,0,0,.88-.75l3.46-19.57a.7.7,0,0,0-.75-.91Zm-10.26-8.47c-4.38,0-6.68,2.17-7.22,5.42L338,397.6h-1.33a.8.8,0,0,0-.88.75l-.5,2.67c-.13.62.17.91.75.91h1.21l-2.84,16c-.12.62.17.92.75.92h3.17a.8.8,0,0,0,.88-.75l2.88-16.15h1.67a.8.8,0,0,0,.87-.75l.5-2.67c.13-.62-.16-.91-.75-.91h-1.54l.54-3.05c.08-.67.75-1.08,1.59-1.08h1.16a.8.8,0,0,0,.88-.75l.5-2.71c.13-.59-.17-.88-.75-.88Z" transform="translate(-224.53 -152.4)"/><path class="cls-1" d="M328,388.92a.82.82,0,0,0-.88.79l-.25,3.17-2.58-1.16a.78.78,0,0,0-1.13.41l-1,2.05a.66.66,0,0,0,.5,1l2.67.62L323,398.05c-.42.42-.42.84,0,1.17l1.33,1.09a.73.73,0,0,0,1.17-.13l2-2.5,1,2.34a.71.71,0,0,0,1.13.37l2-1.25a.72.72,0,0,0,.25-1.17l-1.58-2.13,3.21-.66a.82.82,0,0,0,.71-1l-.25-1.88c-.09-.58-.46-.83-1-.62l-3.05,1.16.79-3c.17-.59-.12-.92-.71-.92Z" transform="translate(-224.53 -152.4)"/><rect class="cls-3" width="391.84" height="291.38"/></svg>